<svg xmlns="http://www.w3.org/2000/svg" xmlns:xlink="http://www.w3.org/1999/xlink" viewBox="0 0 54 55"><defs><style>.cls-1{fill:#fff;}.cls-2{fill:#020302;}.cls-3{mask:url(#mask);}</style><mask id="mask" x="9" y="13" width="37.21" height="30" maskUnits="userSpaceOnUse"><g id="path-2-inside-1_0_1" data-name="path-2-inside-1 0 1"><path class="cls-1" d="M17.72,16.07c3.13-.17,6.84,0,9.17,2.2,2.51-2.14,6-2.4,9.19-2.23a38.86,38.86,0,0,1,4.62.52A1.49,1.49,0,0,1,42,18V34.21c-.3,1.93-1.77,1.86-3.46,1.78-2.92-.15-7.54-1.15-9.76,1.29a2.31,2.31,0,0,0-.7,1.82,1,1,0,0,1-1.39.82c-.64-.25-.38-1.1-.65-1.71-1.73-3.9-8.37-2.13-11.67-2.13a2.06,2.06,0,0,1-2.32-1.63c0-5,0-10.08,0-15.13a6.62,6.62,0,0,1,0-1.72c.24-1.08,1.46-1.1,2.39-1.22s2.23-.26,3.26-.31Zm8.43,19.5V20.41c0-.65-.88-1.36-1.41-1.66-2.23-1.26-5.58-1.11-8.09-.88-.92.08-1.86.21-2.77.38L14,34.33c3.42,0,7.07-1,10.36.27a13.79,13.79,0,0,1,1.82,1Zm14-1.45V18.33a1.32,1.32,0,0,0-.67-.2c-3-.46-7.62-.87-10.28.61a2.15,2.15,0,0,0-1.31,1.67c-.16,1.52.1,3.54.09,5.15,0,1.24,0,2.5,0,3.74,0,2.12,0,4.24,0,6.36A8.17,8.17,0,0,1,32.24,34c2.47-.28,4.54.24,6.91.33.24,0,.93.06,1-.21Z"/></g></mask></defs><g id="Layer_2" data-name="Layer 2"><g id="Layer_1-2" data-name="Layer 1"><rect class="cls-1" width="54" height="55" rx="12"/><path class="cls-2" d="M17.72,16.07c3.13-.17,6.84,0,9.17,2.2,2.51-2.14,6-2.4,9.19-2.23a38.86,38.86,0,0,1,4.62.52A1.49,1.49,0,0,1,42,18V34.21c-.3,1.93-1.77,1.86-3.46,1.78-2.92-.15-7.54-1.15-9.76,1.29a2.31,2.31,0,0,0-.7,1.82,1,1,0,0,1-1.39.82c-.64-.25-.38-1.1-.65-1.71-1.73-3.9-8.37-2.13-11.67-2.13a2.06,2.06,0,0,1-2.32-1.63c0-5,0-10.08,0-15.13a6.62,6.62,0,0,1,0-1.72c.24-1.08,1.46-1.1,2.39-1.22s2.23-.26,3.26-.31Zm8.43,19.5V20.41c0-.65-.88-1.36-1.41-1.66-2.23-1.26-5.58-1.11-8.09-.88-.92.08-1.86.21-2.77.38L14,34.33c3.42,0,7.07-1,10.36.27a13.79,13.79,0,0,1,1.82,1Zm14-1.45V18.33a1.32,1.32,0,0,0-.67-.2c-3-.46-7.62-.87-10.28.61a2.15,2.15,0,0,0-1.31,1.67c-.16,1.52.1,3.54.09,5.15,0,1.24,0,2.5,0,3.74,0,2.12,0,4.24,0,6.36A8.17,8.17,0,0,1,32.24,34c2.47-.28,4.54.24,6.91.33.24,0,.93.06,1-.21Z"/><g class="cls-3"><path class="cls-2" d="M17.72,16.07l-.15-3-2.85.15v2.85Zm9.17,2.2-2.07,2.17,2,1.86,2.06-1.75ZM36.08,16l-.15,3h0Zm4.62.52.62-2.93h0ZM42,18h3v-.18l0-.18Zm0,16.22,3,.46,0-.23v-.23ZM38.54,36l-.15,3h0Zm-9.76,1.29,2.21,2h0Zm-.7,1.82-3-.3h0Zm-1.39.82-1.07,2.8h0ZM26,38.21,28.78,37h0ZM14.37,36.08v-3h0Zm-2.32-1.63h-3v.29l.06.29Zm0-15.13h0Zm0-1.72,2.92.67h0Zm2.39-1.22.38,3h0Zm3.26-.31.16,3,2.84-.14V16.07Zm8.43,19.5v3h3v-3ZM24.74,18.75l1.47-2.61h0Zm-8.09-.88.27,3h0Zm-2.77.38-.55-2.95-2.46.46v2.51ZM14,34.33l-3,0,0,3,3,0Zm10.36.27,1.08-2.8h0Zm1.82,1-1.48,2.61.69.39h.79Zm14-1.45h-3v7l5.06-4.8Zm0-15.79h3V17.08l-.88-.88Zm-.67-.2.46-3h0Zm-10.28.61-1.46-2.62h0ZM27.9,20.41l3,.31h0ZM28,25.56l-3,0h0Zm0,3.74h0Zm0,6.36H25L25,42l4.88-4ZM32.24,34l.34,3h0Zm6.91.33.11-3h0Zm1-.21L43,35l3.18-10.73-8.12,7.7Zm-22.44-18,.16,3a19.07,19.07,0,0,1,4.19.16,5.18,5.18,0,0,1,2.75,1.22l2.07-2.17L29,16.09a11.18,11.18,0,0,0-5.82-2.77,25,25,0,0,0-5.57-.25Zm9.17,2.2,1.95,2.28c1.56-1.33,3.94-1.68,7.09-1.51l.15-3,.16-3c-3.34-.18-7.84,0-11.3,2.93ZM36.08,16l-.15,3a33.09,33.09,0,0,1,4.15.46l.62-2.94.62-2.93a39,39,0,0,0-5.08-.58Zm4.62.52-.62,2.94a1.43,1.43,0,0,1-.7-.46,1.39,1.39,0,0,1-.36-.69L42,18l3-.36a4.5,4.5,0,0,0-3.66-4ZM42,18H39V34.21h6V18Zm0,16.22-3-.47c0,.12,0,0,.17-.27a1.57,1.57,0,0,1,.32-.31A1.41,1.41,0,0,1,39.8,33c.1,0,.09,0-.15,0a9,9,0,0,1-1,0l-.15,3-.15,3a9,9,0,0,0,3.39-.3,4.63,4.63,0,0,0,2.15-1.53,5.29,5.29,0,0,0,1-2.49ZM38.54,36l.15-3c-.66,0-1.36-.11-2.33-.19a28.62,28.62,0,0,0-3-.13c-2,0-4.81.42-6.78,2.59l2.22,2,2.21,2c.25-.27.88-.6,2.47-.63a20.13,20.13,0,0,1,2.38.11c.78.06,1.75.17,2.55.21Zm-9.76,1.29-2.22-2a5.22,5.22,0,0,0-1.2,2,5.07,5.07,0,0,0-.2,1c0,.19-.05.49-.07.6l3,.3,3,.31a1.11,1.11,0,0,0,0-.17v-.13c0-.09,0-.13,0-.17s0,0,0,.11a1.34,1.34,0,0,1-.07.18l-.07.13,0,0L31,39.3Zm-.7,1.82-3-.3a2,2,0,0,1,1-1.5,1.92,1.92,0,0,1,1.7-.18l-1.08,2.8-1.07,2.8a4,4,0,0,0,3.55-.29,4,4,0,0,0,1.89-3Zm-1.39.82,1.08-2.8a2.13,2.13,0,0,1,.69.42,2.1,2.1,0,0,1,.5.61,2.39,2.39,0,0,1,.2.44.89.89,0,0,1,0,.11v0h0v-.11c0-.06,0-.2,0-.33A4.75,4.75,0,0,0,28.78,37L26,38.21,23.3,39.43a1.18,1.18,0,0,1-.11-.32,1.09,1.09,0,0,1,0,.17l.05.38a4.34,4.34,0,0,0,.49,1.46,3.62,3.62,0,0,0,1.87,1.6ZM26,38.21,28.78,37c-1.64-3.72-5.51-4.27-7.92-4.31a32,32,0,0,0-3.8.19c-1.2.11-2,.2-2.69.2v6c1,0,2.23-.13,3.25-.23s2.16-.18,3.12-.17c2.16,0,2.48.56,2.56.75ZM14.37,36.08v-3c-.26,0-.14,0,.11.11a1.3,1.3,0,0,1,.37.37,1,1,0,0,1,.14.31l-2.94.58L9.11,35a4.82,4.82,0,0,0,2.11,3.18,5.68,5.68,0,0,0,3.15.86Zm-2.32-1.63h3c0-5.06,0-10.05,0-15.13h-6c0,5,0,10.11,0,15.14Zm0-15.13h3c0-.25,0-.47,0-.63s0-.26,0-.36,0-.13,0-.06l-2.92-.67-2.93-.67A6.44,6.44,0,0,0,9,18.63c0,.57,0,.47,0,.69Zm0-1.72,2.92.67a1.64,1.64,0,0,1-.17.44,1.81,1.81,0,0,1-.33.43,1.34,1.34,0,0,1-.5.32s0,0,.17,0l.28,0,.4,0-.38-3-.39-3a9.56,9.56,0,0,0-2,.39,4.3,4.3,0,0,0-2.89,3.14Zm2.39-1.22.38,3c1-.12,2.11-.24,3-.29l-.16-3-.15-3c-1.13.06-2.42.19-3.5.33Zm3.26-.31h0Zm8.43,19.5h3V20.41h-6V35.57Zm0-15.16h3a4.44,4.44,0,0,0-1.35-3,6.7,6.7,0,0,0-1.59-1.23l-1.47,2.61-1.48,2.61h0l.07.06a.39.39,0,0,1,.11.09.76.76,0,0,1-.1-.15,2.1,2.1,0,0,1-.23-1Zm-1.41-1.66,1.47-2.61A12.15,12.15,0,0,0,21,14.76a30.78,30.78,0,0,0-4.61.12l.27,3,.27,3a24,24,0,0,1,3.69-.11,6.32,6.32,0,0,1,2.65.61Zm-8.09-.88-.27-3c-1,.09-2,.23-3,.42l.55,2.95.56,2.95a24.68,24.68,0,0,1,2.48-.34Zm-2.77.38-3,0L11,34.35l3,0,3,0-.09-16.08ZM14,34.33l0,3c1,0,1.93-.09,2.81-.17s1.71-.16,2.52-.2a9.45,9.45,0,0,1,3.9.44l1.08-2.8,1.08-2.8A15.36,15.36,0,0,0,19.05,31c-.95.05-1.9.14-2.74.21s-1.64.14-2.38.15Zm10.36.27-1.08,2.8a11.48,11.48,0,0,1,1.42.78l1.48-2.61L27.63,33a17,17,0,0,0-2.22-1.16Zm1.82,1v3h0v-6h0Zm14-1.45h3V18.33h-6V34.12Zm0-15.79,2.12-2.13a3.66,3.66,0,0,0-1.8-.95l-.41-.07H40l-.46,3-.46,3,.15,0h0a2.08,2.08,0,0,1-.39-.13,2.3,2.3,0,0,1-.79-.54Zm-.67-.2.46-3a34.33,34.33,0,0,0-5.75-.46,13.76,13.76,0,0,0-6.45,1.41l1.46,2.62,1.46,2.62a8.23,8.23,0,0,1,3.61-.65A29.36,29.36,0,0,1,39,21.1Zm-10.28.61-1.46-2.62a5.09,5.09,0,0,0-2.83,4l3,.32,3,.31a1.08,1.08,0,0,1-.09.34,1.18,1.18,0,0,1-.2.32l-.08.08.16-.1ZM27.9,20.41l-3-.32a20.31,20.31,0,0,0,0,3c.05,1,.11,1.75.1,2.44l3,0,3,0c0-.91-.07-2-.1-2.78a14.43,14.43,0,0,1,0-2.08ZM28,25.56l-3,0c0,1.26,0,2.53,0,3.76h6c0-1.25,0-2.49,0-3.71Zm0,3.74H25c0,2,0,4.31,0,6.37h3l3,0c0-2.17,0-4.13,0-6.35Zm0,6.36L29.9,38a5.13,5.13,0,0,1,2.68-1l-.34-3-.34-3a11.13,11.13,0,0,0-5.83,2.33ZM32.24,34l.34,3a13.8,13.8,0,0,1,2.87,0c1,.09,2.29.27,3.58.32l.12-3,.11-3c-1.08,0-2-.17-3.25-.29a20,20,0,0,0-4.11,0Zm6.91.33-.12,3h.3c.16,0,.39,0,.66,0A4.09,4.09,0,0,0,41.16,37,3.23,3.23,0,0,0,43,35l-2.87-.85-2.88-.85a2.78,2.78,0,0,1,1.56-1.77,2.37,2.37,0,0,1,.6-.16h-.18Zm1-.21-2.07-2.18h0l2.07,2.18,2.06,2.18h0Z"/></g></g></g></svg>