<svg xmlns="http://www.w3.org/2000/svg" xmlns:xlink="http://www.w3.org/1999/xlink" viewBox="0 0 166.78 35.54"><defs><style>.cls-1{fill:none;}.cls-2{clip-path:url(#clip-path);}.cls-3,.cls-4{fill:#fff;}.cls-4{fill-rule:evenodd;}</style><clipPath id="clip-path"><rect class="cls-1" width="168.49" height="35.54"/></clipPath></defs><g id="Layer_2" data-name="Layer 2"><g id="Layer_1-2" data-name="Layer 1"><g class="cls-2"><path class="cls-3" d="M49.34,0c-4.46,0-7,2.51-7,6.66s2.55,6.62,6.93,6.62c4,0,6.38-2.06,6.77-5.32H53c-.28,1.86-1.44,3-3.7,3-2.51,0-4-1.45-4-4.3s1.33-4.3,4-4.3a3.24,3.24,0,0,1,3.61,3h3C55.53,2.14,53.46,0,49.34,0Z"/><path class="cls-4" d="M63.83,13.28c4.27,0,6.89-2.58,6.89-6.68,0-4.29-2.86-6.6-6.89-6.6C59.56,0,57,2.4,57,6.68S59.8,13.28,63.83,13.28Zm0-10.94c2.35,0,3.92,1.36,3.92,4.34s-1.44,4.26-3.92,4.26-3.92-1.45-3.92-4.35S61.35,2.34,63.83,2.34Z"/><path class="cls-3" d="M75.23.22H72.31V13.06h2.92V4.35a3.55,3.55,0,0,1,3.48-2.12c2.09,0,3.16,1,3.16,3v7.8h2.92V4.84c0-3.07-1.7-4.84-4.71-4.84a4.68,4.68,0,0,0-4.85,3.63Z"/><path class="cls-3" d="M89.06,9.12H86c.33,2.58,2.27,4.16,6.45,4.16s6-1.71,6-4c0-1.95-.94-3.29-3.77-3.61l-3.9-.46c-1.15-.13-1.57-.58-1.57-1.34,0-.91.7-1.6,2.92-1.6s3,.74,3.16,1.86h3c-.37-2.44-2-4.13-6.1-4.13s-5.82,1.75-5.82,4c0,2,1.07,3.23,3.92,3.55L94,8c1.24.15,1.57.67,1.57,1.37,0,.92-.85,1.62-3.07,1.62S89.3,10.4,89.06,9.12Z"/><path class="cls-4" d="M99.52,6.68c0,3.76,2.35,6.6,6.76,6.6,3.68,0,5.94-1.73,6.6-4.37h-3c-.43,1.27-1.55,2-3.53,2a3.66,3.66,0,0,1-3.88-3.57H113C113,2.88,111,0,106.3,0,102.05,0,99.52,2.7,99.52,6.68Zm10.37-1.27h-7.36a3.51,3.51,0,0,1,3.75-3.14A3.23,3.23,0,0,1,109.89,5.41Z"/><path class="cls-3" d="M117.32.22H114.4V13.06h2.92V4.35a3.56,3.56,0,0,1,3.49-2.12c2.09,0,3.16,1,3.16,3v7.8h2.92V4.84c0-3.07-1.7-4.84-4.71-4.84a4.69,4.69,0,0,0-4.86,3.63Z"/><path class="cls-3" d="M131.16,9.12H128.1c.33,2.58,2.27,4.16,6.46,4.16s5.94-1.71,5.94-4c0-1.95-.93-3.29-3.76-3.61l-3.91-.46c-1.15-.13-1.56-.58-1.56-1.34,0-.91.69-1.6,2.91-1.6s3,.74,3.16,1.86h3c-.37-2.44-2-4.13-6.1-4.13s-5.81,1.75-5.81,4c0,2,1.06,3.23,3.92,3.55l3.74.43c1.25.15,1.57.67,1.57,1.37,0,.92-.85,1.62-3.07,1.62S131.4,10.4,131.16,9.12Z"/><path class="cls-3" d="M149,16.22l5.42-16h-3l-3.75,11.24L143.73.22H140.5l4.25,11.43h2.81l-.72,2.19h-4.92v2.38Z"/><path class="cls-3" d="M157.43,9.13h-3.05c.33,2.57,2.27,4.15,6.45,4.15s5.95-1.71,5.95-4c0-1.95-.94-3.29-3.77-3.61l-3.9-.46c-1.16-.13-1.57-.58-1.57-1.34s.7-1.6,2.92-1.6,3,.74,3.16,1.86h3c-.37-2.44-2-4.13-6.1-4.13s-5.82,1.75-5.82,4.05c0,2,1.07,3.22,3.92,3.54L162.4,8c1.24.16,1.57.67,1.57,1.37,0,.93-.85,1.62-3.07,1.62S157.67,10.4,157.43,9.13Z"/><path class="cls-4" d="M35.59,17.88V.22H17.8A17.66,17.66,0,1,0,35.59,17.88ZM13.75,9.05,22.65.22V13.06H35.59l-8.9,8.83H13.75Z"/></g></g></g></svg>