<svg xmlns="http://www.w3.org/2000/svg" viewBox="0 0 706.16 74.04"><defs><style>.cls-1{fill:#fff;}</style></defs><g id="Layer_2" data-name="Layer 2"><g id="Layer_1-2" data-name="Layer 1"><rect width="706.16" height="74.04"/><path class="cls-1" d="M641.53,15.71q7.2,0,11.12,4.33c2.68,2.89,4,7.13,4,12.75V58.23h-9.32V33.6q0-10.38-8.43-10.38a8.7,8.7,0,0,0-6.87,3.1c-1.75,2.08-2.62,5-2.62,8.84V58.23h-9.32V16.69h8.83v5.4h.17a14.72,14.72,0,0,1,12.44-6.38Z"/><path class="cls-1" d="M593.07,52.6a10.27,10.27,0,0,0,6.38-1.88,8,8,0,0,0,3.18-5h9.57a16.32,16.32,0,0,1-6.3,9.81q-5.07,3.93-12.83,3.92a20.54,20.54,0,0,1-10.8-2.77,18.94,18.94,0,0,1-6.95-7.94A27.36,27.36,0,0,1,573,37a24.94,24.94,0,0,1,2.37-11,18.11,18.11,0,0,1,6.87-7.69,20.18,20.18,0,0,1,10.71-2.78,18.78,18.78,0,0,1,11.94,3.84,18.27,18.27,0,0,1,6.71,10.3,33.5,33.5,0,0,1,1.14,9.74h-30.5c.16,4.47,1.23,7.8,3.18,10a10,10,0,0,0,7.7,3.27Zm-.17-30.26a10,10,0,0,0-7.2,2.77c-1.86,1.87-3,4.56-3.35,8.1h21c-.33-3.54-1.44-6.23-3.35-8.1A9.62,9.62,0,0,0,592.9,22.34Z"/><path class="cls-1" d="M544.41,15.55a13.27,13.27,0,0,1,6.79,1.71,15.65,15.65,0,0,1,5.32,5.24h.16V16.69h8.84V55.62q0,9.15-5,13.75c-3.26,3.1-7.9,4.67-13.91,4.67q-8.25,0-12.92-3.52a12.25,12.25,0,0,1-4.91-9.65h9.32a5.84,5.84,0,0,0,2.45,4.67,10.41,10.41,0,0,0,6.22,1.64q4.83,0,7.2-2.78c1.64-1.86,2.45-4.88,2.45-9.08V51.24h-.16a15.58,15.58,0,0,1-5.24,5,14.4,14.4,0,0,1-6.79,1.55,16.55,16.55,0,0,1-9.16-2.53,17.12,17.12,0,0,1-6-7.37A27.49,27.49,0,0,1,527,36.69a26.94,26.94,0,0,1,2.12-11.12,16.23,16.23,0,0,1,6.06-7.36,16.45,16.45,0,0,1,9.24-2.62Zm2.12,7.75a8.52,8.52,0,0,0-7.2,3.59q-2.62,3.6-2.62,9.74c0,4.08.87,7.36,2.62,9.81a8.52,8.52,0,0,0,7.2,3.59A8.75,8.75,0,0,0,554,46.44c1.87-2.45,2.78-5.73,2.78-9.81s-.93-7.34-2.78-9.74A8.75,8.75,0,0,0,546.53,23.3Z"/><path class="cls-1" d="M509.76,58.23V16.69h9.32V58.25h-9.32Zm0-49.31V0h9.32V8.92Z"/><path class="cls-1" d="M471.79,8.52V24.35h27.32v8.44H471.79V49.84h29.93v8.52H462V0h38.93V8.52Z"/><path class="cls-1" d="M705,0H664.83V58.38H705Z"/><path class="cls-1" d="M704.64,0H664.46V58.38h40.18Z"/></g></g></svg>